<svg xmlns="http://www.w3.org/2000/svg" viewBox="0 0 308.41 153.73"><defs><style>.cls-1{font-size:50.15px;font-family:Montserrat-Regular, Montserrat;letter-spacing:0.05em;}.cls-1,.cls-8{fill:#fff;}.cls-2{letter-spacing:0.05em;}.cls-3{letter-spacing:0.02em;}.cls-4{letter-spacing:0.01em;}.cls-5{letter-spacing:0.04em;}.cls-6{letter-spacing:0.05em;}.cls-7{letter-spacing:0.06em;}</style></defs><g id="Layer_2" data-name="Layer 2"><g id="Layer_1-2" data-name="Layer 1"><text class="cls-1" transform="translate(0 140.6)">L<tspan class="cls-2" x="32.14" y="0">A</tspan><tspan class="cls-3" x="70.61" y="0">F</tspan><tspan class="cls-4" x="103.21" y="0">A</tspan><tspan class="cls-5" x="139.61" y="0">Y</tspan><tspan class="cls-6" x="173.21" y="0">E</tspan><tspan class="cls-7" x="209.27" y="0">T</tspan><tspan class="cls-2" x="241.06" y="0">TE</tspan></text><rect class="cls-8" x="152.04" y="-38.46" width="4.32" height="81.24" transform="translate(156.37 -152.04) rotate(90)"/><rect class="cls-8" x="152.04" y="-29.11" width="4.32" height="81.24" transform="translate(165.72 -142.69) rotate(90)"/><rect class="cls-8" x="152.04" y="-19.75" width="4.32" height="81.24" transform="translate(175.07 -133.34) rotate(90)"/><rect class="cls-8" x="152.04" y="18.45" width="4.32" height="81.24" transform="translate(213.28 -95.13) rotate(90)"/><rect class="cls-8" x="152.04" y="27.8" width="4.32" height="81.24" transform="translate(222.63 -85.78) rotate(90)"/><rect class="cls-8" x="152.04" y="37.16" width="4.32" height="81.24" transform="translate(231.98 -76.43) rotate(90)"/><rect class="cls-8" x="151.1" y="18.24" width="4.32" height="25.24" transform="translate(184.12 -122.41) rotate(90)"/><rect class="cls-8" x="151.1" y="27.59" width="4.32" height="25.24" transform="translate(193.47 -113.06) rotate(90)"/><rect class="cls-8" x="151.1" y="36.94" width="4.32" height="25.24" transform="translate(202.83 -103.7) rotate(90)"/><rect class="cls-8" x="132.98" y="28.73" width="4.32" height="23" transform="translate(270.28 80.45) rotate(180)"/><rect class="cls-8" x="123.62" y="28.73" width="4.32" height="23" transform="translate(251.57 80.45) rotate(180)"/><rect class="cls-8" x="114.27" y="28.73" width="4.32" height="23" transform="translate(232.87 80.45) rotate(180)"/><rect class="cls-8" x="189.53" y="28.71" width="4.32" height="23" transform="translate(383.38 80.42) rotate(180)"/><rect class="cls-8" x="180.17" y="28.71" width="4.32" height="23" transform="translate(364.67 80.42) rotate(180)"/><rect class="cls-8" x="170.82" y="28.71" width="4.32" height="23" transform="translate(345.97 80.42) rotate(180)"/></g></g></svg>