<svg xmlns="http://www.w3.org/2000/svg" viewBox="0 0 59.94 58.98"><defs><style>.cls-1{fill:#1b5128;}</style></defs><g id="Layer_2" data-name="Layer 2"><g id="Layer_1-2" data-name="Layer 1"><rect class="cls-1" x="28.37" y="-28.37" width="3.19" height="59.94" transform="translate(31.56 -28.37) rotate(90)"/><rect class="cls-1" x="28.37" y="-21.47" width="3.19" height="59.94" transform="translate(38.46 -21.47) rotate(90)"/><rect class="cls-1" x="28.37" y="-14.57" width="3.19" height="59.94" transform="translate(45.36 -14.57) rotate(90)"/><rect class="cls-1" x="28.37" y="13.61" width="3.19" height="59.94" transform="translate(73.55 13.61) rotate(90)"/><rect class="cls-1" x="28.37" y="20.51" width="3.19" height="59.94" transform="translate(80.45 20.51) rotate(90)"/><rect class="cls-1" x="28.37" y="27.41" width="3.19" height="59.94" transform="translate(87.35 27.41) rotate(90)"/><rect class="cls-1" x="27.68" y="13.46" width="3.19" height="18.62" transform="translate(52.04 -6.51) rotate(90)"/><rect class="cls-1" x="27.68" y="20.36" width="3.19" height="18.62" transform="translate(58.94 0.39) rotate(90)"/><rect class="cls-1" x="27.68" y="27.25" width="3.19" height="18.62" transform="translate(65.84 7.29) rotate(90)"/><rect class="cls-1" x="14.31" y="21.19" width="3.19" height="16.97" transform="translate(31.81 59.35) rotate(180)"/><rect class="cls-1" x="7.41" y="21.19" width="3.19" height="16.97" transform="translate(18.01 59.35) rotate(180)"/><rect class="cls-1" x="0.51" y="21.19" width="3.19" height="16.97" transform="translate(4.21 59.35) rotate(180)"/><rect class="cls-1" x="56.03" y="21.18" width="3.19" height="16.97" transform="translate(115.25 59.33) rotate(180)"/><rect class="cls-1" x="49.13" y="21.18" width="3.19" height="16.97" transform="translate(101.45 59.33) rotate(180)"/><rect class="cls-1" x="42.23" y="21.18" width="3.19" height="16.97" transform="translate(87.65 59.33) rotate(180)"/></g></g></svg>